<?xml version="1.0" encoding="utf-8"?>
<!-- Svg Vector Icons : http://www.onlinewebfonts.com/icon -->
<!DOCTYPE svg PUBLIC "-//W3C//DTD SVG 1.1//EN" "http://www.w3.org/Graphics/SVG/1.1/DTD/svg11.dtd">
<svg version="1.1" xmlns="http://www.w3.org/2000/svg" xmlns:xlink="http://www.w3.org/1999/xlink" x="0px" y="0px" viewBox="0 0 1000 1000" enable-background="new 0 0 1000 1000" xml:space="preserve">
<metadata> Svg Vector Icons : http://www.onlinewebfonts.com/icon </metadata>
<g><g transform="translate(0.000000,512.000000) scale(0.100000,-0.100000)"><path d="M4076.3,4977.9c-24.9-24.9-132.1-218.2-241.2-430.7L3636,4158.5h-116.8c-65.1,0-269.9,9.6-457.5,19.1c-375.2,21.1-440.3,9.6-465.2-84.2c-5.7-24.9-1.9-229.7,9.6-455.6c11.5-225.9,21.1-426.9,21.1-449.9c0-34.5-68.9-76.6-396.3-245c-220.2-111-413.5-220.1-430.7-243.1c-65.1-74.7-44-128.3,214.4-530.3l246.9-388.6l-68.9-109.1c-474.8-738.9-474.8-737-384.8-819.3c24.9-21.1,218.2-128.3,432.6-237.4L2631,416l-11.5-220.2c-5.7-120.6-17.2-333.1-23-472.8l-13.4-250.8l51.7-51.7c51.7-51.7,55.5-51.7,262.3-44c145.5,5.7,206.7,1.9,201-11.5c-3.8-11.5-325.4-731.3-712.1-1600.4c-386.7-867.2-702.6-1602.3-702.6-1631c0-63.2,47.9-122.5,111-137.8c32.5-7.7,222.1,55.5,624.1,208.7c317.8,122.5,578.1,220.2,580,216.3c3.8-3.8,101.5-260.3,220.2-570.5c130.2-342.7,229.7-578.1,254.6-597.3c49.8-44,134-44,185.7,0c21.1,17.2,321.6,670,687.2,1493.2c358,804,654.7,1453,662.4,1443.4c5.7-9.6,300.6-668.1,652.8-1460.6c365.6-823.2,658.5-1458.7,681.5-1476c47.9-40.2,128.3-44,174.2-7.6c44,32.5,68.9,91.9,292.9,681.5c103.4,268,189.5,490.1,191.4,493.9c1.9,1.9,264.2-93.8,582-216.3c403.9-155,591.5-216.3,624.1-208.7c63.2,15.3,107.2,70.8,109.1,134c0,34.5-247,614.5-616.4,1443.4c-708.3,1592.7-804,1807.1-804,1809.1c0,1.9,93.8-1.9,208.7-5.7c206.7-7.7,210.6-7.7,262.3,44c51.7,51.7,51.7,51.7,40.2,254.6c-7.7,112.9-17.2,325.4-24.9,472.8l-11.5,268l390.5,199.1c212.5,109.1,407.8,216.3,432.6,237.4c80.4,72.7,59.4,124.4-206.7,539.8l-250.8,388.6l250.8,388.6c256.5,403.9,279.5,455.6,216.3,530.3c-19.2,21.1-212.5,132.1-430.7,243.1c-394.3,202.9-398.2,204.8-398.2,266.1c0,34.5,9.6,239.3,21.1,451.8c21.1,428.8,13.4,478.6-74.6,515c-36.4,15.3-149.3,15.3-386.7,1.9c-183.8-9.6-388.6-19.1-453.7-19.1H6364l-204.8,398.2c-111,218.2-220.1,411.6-241.2,430.7c-22.9,17.2-63.1,32.5-88,32.5c-30.6,0-202.9-97.6-438.4-250.8L5001,4518.4l-390.5,250.8c-246.9,157-409.7,250.8-442.2,250.8C4141.4,5020,4099.3,5000.9,4076.3,4977.9z M4606.6,4407.4c199.1-126.3,375.2-229.7,394.4-229.7c17.2,0,193.4,103.4,392.4,229.7c197.2,126.4,363.7,229.7,371.4,229.7c5.8,0,97.6-170.4,202.9-375.2c162.7-321.6,199.1-379,248.9-398.2c40.2-17.2,134-19.1,315.9-9.6c141.7,7.7,327.3,13.4,411.6,15.3l153.2,1.9l-17.2-421.2c-11.5-285.2-11.5-436.5,1.9-465.2c13.4-28.7,141.7-103.4,396.3-233.6c204.8-105.3,375.2-199.1,375.2-206.7s-97.6-166.5-216.3-354.2c-118.7-185.7-222.1-354.2-229.7-373.3c-19.1-51.7,5.7-101.5,235.5-453.7c114.9-180,210.6-335,210.6-342.7c0-7.6-149.3-91.9-329.3-183.8c-181.9-91.9-359.9-189.5-396.3-216.3l-63.2-47.9l13.4-449.9l13.4-449.9L6990-315.3c-57.4,7.7-247,17.2-423.1,24.9c-386.7,15.3-384.8,17.2-495.8-208.7c-44-86.1-130.2-252.7-191.5-371.4l-114.9-212.5l-356.1,227.8C5171.3-702,5035.4-627.3,4999-627.3s-168.5-72.7-396.3-220.1c-189.5-120.6-352.2-220.2-361.8-220.2S4139.5-903,4036.1-703.9c-116.8,229.7-204.8,377.1-233.6,396.3c-42.1,26.8-91.9,28.7-463.3,9.6c-227.8-9.6-419.2-13.4-425-7.7c-5.7,7.7-3.8,204.8,7.7,440.3c15.3,384.8,13.4,428.8-15.3,461.4c-17.2,19.1-195.3,118.7-394.4,222.1c-201,101.5-363.7,193.3-363.7,202.9c0,7.7,99.6,170.4,220.2,358c160.8,248.9,220.2,358,220.2,402c0,44-59.3,153.2-220.2,402c-120.6,189.5-220.2,350.3-220.2,359.9s170.4,103.4,375.2,208.7c252.7,128.3,382.9,204.8,396.3,233.6c13.4,30.6,13.4,174.2,0,459.4c-9.6,229.7-15.3,421.2-11.5,425c1.9,3.8,187.6,0,411.6-11.5c237.4-9.6,428.8-9.6,459.4,0c42.1,13.4,86.1,84.2,248.9,398.2c109.1,208.7,201,381,206.7,381C4241,4637.1,4407.5,4533.8,4606.6,4407.4z M3831.3-977.6c109.1-212.5,216.3-405.8,237.4-428.8c74.7-84.2,132.1-63.2,522.6,187.6c363.7,235.5,444.1,277.6,425,225.9c-44-111-1420.4-3189.3-1431.9-3200.8c-7.7-9.6-32.5,28.7-53.6,86.2c-183.8,486.2-315.9,813.6-342.7,842.3c-17.2,19.2-57.4,34.5-93.8,34.5c-34.5,0-264.2-76.6-509.2-172.3c-245-93.8-446-168.5-449.9-164.6c-3.8,1.9,283.3,654.7,637.5,1449.2c354.2,794.4,650.9,1462.6,660.4,1487.4c13.4,36.4,30.6,42.1,107.2,42.1h91.9L3831.3-977.6z M7208.2-2076.5c365.7-817.4,660.4-1489.4,658.5-1493.2c-3.8-1.9-204.8,72.7-449.9,166.6c-245,95.7-474.8,172.3-511.1,172.3c-44,0-74.7-13.4-99.5-46c-19.2-24.9-112.9-245-204.8-488.2c-93.8-245-176.1-438.4-185.7-428.8c-7.7,7.7-291,637.5-629.8,1399.4l-616.4,1384.1l53.6,124.4c28.7,68.9,57.4,128.3,63.2,132.1c7.7,3.8,118.7-61.3,248.9-145.5c260.4-166.6,329.3-183.8,398.2-107.2c21,23,128.3,216.3,237.4,428.8L6369.7-589h88.1h88.1L7208.2-2076.5z"/><path d="M4736.8,3756.5c-442.2-63.2-855.7-275.7-1165.8-599.2c-394.4-413.5-585.8-926.6-555.2-1487.5C3065.6,806.5,3649.4,92.5,4497.5-143c168.5-47.9,218.2-53.6,503.5-53.6c283.3,0,335,5.7,501.6,51.7c237.4,67,402,141.7,603,275.7c580,386.7,922.7,1070.1,880.6,1759.3c-53.6,871-660.4,1608-1500.9,1820.5C5276.6,3762.3,4933.9,3785.3,4736.8,3756.5z M5412.5,3412c463.3-118.7,844.2-419.2,1070.1-844.2C7078,1447.8,6268.3,100.1,5001,100.1c-748.5,0-1399.4,488.2-1619.5,1215.6c-45.9,155.1-51.7,202.9-53.6,459.4c0,235.5,7.7,313.9,42.1,436.5c178,647.1,725.5,1133.3,1391.7,1238.6C4926.3,3475.1,5234.5,3457.9,5412.5,3412z"/><path d="M4780.8,2870.2c-124.4-260.4-197.2-386.7-239.3-421.2c-32.5-28.7-67-51.7-76.6-51.7c-30.6,0-796.4-116.8-817.4-124.4c-13.4-3.8-24.9-19.1-24.9-32.5c0-13.4,141.7-166.5,315.9-340.7l315.9-317.8v-88.1c0-47.9-24.9-237.4-57.4-421.2c-61.3-356.1-67-426.9-38.3-446c9.6-5.7,195.3,80.4,409.7,191.4c216.3,111,409.7,201,432.6,201c21.1,0,216.3-90,430.7-202.9c216.3-111,402-195.3,411.6-189.5c30.6,19.2,23,88.1-45.9,486.3c-46,268-59.4,386.7-47.9,430.7c11.5,40.2,116.8,158.9,323.5,365.6c168.5,168.5,306.3,317.8,306.3,331.2c0,13.4-11.5,28.7-23,32.5c-23,7.7-788.7,124.4-819.3,124.4c-9.6,0-44,23-78.5,51.7c-44,38.3-114.9,160.8-243.1,421.2c-143.6,296.7-185.7,369.5-216.3,369.5C4966.5,3239.7,4924.4,3166.9,4780.8,2870.2z"/></g></g>
</svg>