<?xml version="1.0" standalone="no"?>
<!DOCTYPE svg PUBLIC "-//W3C//DTD SVG 20010904//EN"
 "http://www.w3.org/TR/2001/REC-SVG-20010904/DTD/svg10.dtd">
<svg version="1.0" xmlns="http://www.w3.org/2000/svg"
 width="500.000000pt" height="380.000000pt" viewBox="0 0 500.000000 380.000000"
 preserveAspectRatio="xMidYMid meet">

<g transform="translate(0.000000,380.000000) scale(0.100000,-0.100000)"
fill="#000000" stroke="none">
<path d="M383 3785 c-200 -44 -349 -210 -373 -415 -7 -55 -10 -668 -8 -1725
l3 -1640 1613 -3 1612 -2 0 1565 0 1565 192 2 193 3 33 55 c18 30 38 73 44 95
17 57 14 191 -6 245 -39 107 -124 194 -236 242 l-55 23 -1475 2 c-1214 1
-1486 -1 -1537 -12z m216 -171 c84 -106 82 -327 -4 -439 -14 -19 -25 -36 -25
-39 0 -3 563 -6 1250 -6 l1250 0 0 -1480 0 -1480 -1450 0 -1450 0 2 1623 3
1622 29 53 c63 113 165 168 318 171 50 1 59 -2 77 -25z"/>
<path d="M2298 3033 c-39 -51 -52 -61 -108 -80 -36 -12 -71 -30 -77 -40 -8
-10 -13 -47 -13 -88 0 -63 -3 -74 -28 -105 -62 -76 -63 -91 -7 -162 32 -40 35
-48 35 -114 0 -40 5 -77 13 -87 6 -10 41 -28 77 -40 56 -19 69 -29 108 -80 43
-56 47 -59 81 -54 20 3 55 11 78 18 35 11 51 11 85 0 24 -7 59 -15 79 -18 38
-5 34 -8 107 87 16 21 41 35 79 46 81 24 93 40 93 125 0 63 3 75 29 108 61 78
62 92 6 163 -32 40 -35 48 -35 114 0 40 -5 77 -13 87 -6 10 -41 28 -77 40 -56
19 -69 29 -108 80 -50 65 -52 66 -154 36 -40 -11 -56 -11 -95 0 -103 30 -105
29 -155 -36z m333 -146 c138 -71 194 -228 131 -369 -29 -65 -67 -104 -134
-137 -86 -44 -170 -44 -256 0 -67 33 -105 72 -134 137 -63 141 -7 298 131 369
53 28 74 33 131 33 57 0 78 -5 131 -33z"/>
<path d="M540 2440 l0 -90 610 0 610 0 0 90 0 90 -610 0 -610 0 0 -90z"/>
<path d="M2435 2129 c-47 -18 -78 -19 -117 -4 -15 6 -18 -3 -20 -82 l-3 -88
-877 -3 -878 -2 0 -90 0 -90 880 0 879 0 3 -95 3 -94 98 96 97 96 98 -96 97
-96 3 271 c1 149 1 273 -1 275 -2 1 -18 -2 -36 -8 -27 -9 -43 -8 -95 10 -73
25 -67 25 -131 0z"/>
<path d="M540 1450 l0 -90 1070 0 1070 0 0 90 0 90 -1070 0 -1070 0 0 -90z"/>
<path d="M540 1040 l0 -90 1070 0 1070 0 0 90 0 90 -1070 0 -1070 0 0 -90z"/>
<path d="M540 630 l0 -90 1070 0 1070 0 0 90 0 90 -1070 0 -1070 0 0 -90z"/>
<path d="M4070 2525 c-294 -90 -574 -175 -622 -189 l-88 -26 0 -70 c0 -39 1
-70 3 -70 1 0 31 9 65 20 81 25 90 25 65 -2 -44 -50 -53 -48 258 -48 l293 0
-39 41 c-38 38 -162 109 -191 109 -8 0 -14 5 -14 10 0 6 6 10 13 10 7 0 132
36 277 80 146 44 268 80 273 80 4 0 7 -17 7 -37 0 -50 29 -95 73 -116 46 -22
74 -21 122 3 21 11 40 18 42 16 2 -1 16 -45 31 -97 l28 -94 40 -3 c21 -2 42
-7 47 -11 6 -6 9 -457 7 -1198 l0 -162 -46 -3 -47 -3 -28 -93 c-15 -52 -30
-96 -32 -99 -3 -2 -17 3 -32 13 -15 10 -45 17 -69 17 -77 0 -136 -55 -136
-127 0 -21 -5 -36 -12 -36 -23 0 -558 165 -558 172 0 5 8 8 18 8 32 0 135 58
187 105 l49 45 -297 0 c-286 0 -297 -1 -288 -18 5 -10 17 -24 25 -32 32 -26
14 -27 -59 -5 l-76 24 3 -71 3 -72 635 -191 c558 -169 636 -190 643 -176 5 9
86 274 181 589 l172 572 -85 25 c-113 34 -115 35 -109 40 3 3 47 18 99 34 66
20 93 32 91 42 -2 8 -81 270 -176 584 -149 496 -174 570 -191 571 -11 1 -261
-71 -555 -161z"/>
<path d="M3360 2005 l0 -65 63 -1 c61 0 62 0 37 -17 -14 -9 -42 -32 -62 -51
l-38 -33 0 -377 0 -377 43 -41 c23 -22 51 -45 62 -51 16 -9 8 -11 -42 -12
l-63 0 0 -70 0 -70 670 0 670 0 0 615 0 615 -670 0 -670 0 0 -65z m1003 -122
c-3 -46 0 -64 15 -89 33 -52 107 -77 166 -54 l26 10 0 -290 c0 -160 -2 -290
-4 -290 -1 0 -17 5 -34 11 -42 14 -101 -3 -137 -42 -27 -27 -30 -37 -30 -95
l0 -64 -294 0 -294 0 39 28 c133 97 204 253 204 452 0 110 -17 188 -62 279
-30 62 -105 148 -158 184 -23 15 -7 16 272 16 l296 1 -5 -57z m-685 -128 c-4
-32 -1 -36 21 -41 66 -13 102 -26 107 -39 3 -7 0 -32 -6 -55 -9 -33 -15 -40
-28 -34 -104 44 -192 35 -192 -21 0 -29 11 -38 93 -70 106 -43 152 -105 133
-180 -9 -37 -63 -92 -101 -105 -32 -11 -35 -15 -35 -51 0 -39 0 -39 -39 -39
-39 0 -40 1 -43 37 -3 37 -4 38 -53 46 -27 4 -54 12 -58 16 -4 4 -3 29 4 55 9
38 15 46 28 40 9 -4 38 -12 64 -18 39 -8 54 -7 75 5 49 27 35 50 -57 95 -110
53 -141 87 -141 155 0 70 27 112 91 141 46 22 49 25 49 60 l0 38 46 0 46 0 -4
-35z"/>
</g>
</svg>
