<?xml version="1.0" encoding="utf-8"?>
<!-- Generator: Adobe Illustrator 25.4.1, SVG Export Plug-In . SVG Version: 6.00 Build 0)  -->
<svg version="1.1" id="레이어_1" xmlns="http://www.w3.org/2000/svg" xmlns:xlink="http://www.w3.org/1999/xlink" x="0px"
	 y="0px" viewBox="0 0 710.5 750.7" style="enable-background:new 0 0 710.5 750.7;" xml:space="preserve">
<style type="text/css">
	.st0{fill:none;stroke:#315E8B;stroke-width:18;stroke-miterlimit:10;}
	.st1{fill:#315E8B;stroke:#315E8B;stroke-width:8.5;stroke-miterlimit:1;}
	.st2{fill:#315E8B;stroke:#315E8B;stroke-width:5;stroke-miterlimit:10;}
	.st3{fill:#315E8B;stroke:#315E8B;stroke-width:6;stroke-miterlimit:1;}
</style>
<ellipse class="st0" cx="355.2" cy="547.9" rx="346.2" ry="83.9"/>
<path class="st0" d="M9,547.9v127.8c138.7,54,260.3,66,346.2,66c144.8,0,263.9-33.9,346.2-66V547.9"/>
<g transform="translate(0.000000,512.000000) scale(0.100000,-0.100000)">
	<path class="st1" d="M5647.5,5015.2c-59.1-26.7-109.5-93.4-133.4-173.4c-8.6-27.6-17.1-39.1-32.4-41c-12.4-1.9-38.1-20-57.2-39.1
		c-45.7-45.7-55.2-88.6-33.3-143.8l16.2-40l-29.5-29.5l-29.5-29.5l-137.2,133.4c-154.3,151.5-193.4,175.3-279.1,175.3
		c-141-1-255.3-116.2-256.2-260.1c0-53.3-2.9-64.8-17.1-69.5c-49.5-15.2-110.5-95.3-124.8-162.9c-5.7-23.8-14.3-32.4-39.1-41
		c-84.8-27.6-153.4-110.5-163.8-198.1c-4.8-41.9-8.6-49.5-33.3-60c-37.2-15.2-87.6-76.2-101-121.9c-14.3-44.8-14.3-109.5-1.9-153.4
		l9.5-32.4l-179.1-181.9l-179.1-181l-208.6-371.5L3429,2622.4l-409.6-422.9c-225.8-232.4-424.8-439.1-441-460.1
		c-22.9-27.6-31.4-48.6-31.4-73.3c0-97.2,112.4-159.1,186.7-102.9c16.2,11.4,221,207.7,455.3,435.3l425.8,414.4l382.9,217.2
		l382.9,217.2l161.9,160l161.9,161l66.7-57.2c74.3-63.8,262-189.6,423.9-282.9c57.2-33.3,121-75.3,141.9-92.4
		c80-68.6,164.8-235.3,248.6-490.6c57.2-170.5,59.1-176.2,98.1-199.1c46.7-28.6,109.5-25.7,155.3,8.6
		c20,15.2,267.7,258.1,548.7,540.1c348.6,350.5,513.4,522,518.2,540.1c9.5,42.9-1.9,101.9-26.7,127.6
		c-12.4,13.3-102.9,63.8-202.9,112.4c-201,99.1-350.5,184.8-412.5,238.1c-88.6,77.2-100,147.6-68.6,432.5
		c26.7,248.6,25.7,253.4-81.9,446.8c-139.1,249.6-255.3,423.9-330.5,495.3C5744.7,5024.7,5692.3,5035.2,5647.5,5015.2z
		 M5749.4,4916.1c101-113.4,365.8-552.5,383.9-639.2c3.8-18.1-2.9-123.8-15.2-237.2c-31.4-300.1-17.1-378.2,89.5-475.3
		c71.4-65.7,188.6-135.3,421-251.5c186.7-93.4,200-101.9,202.9-127.6c2.9-25.7-41.9-73.3-523.9-555.4
		c-554.4-554.4-552.5-553.4-591.6-509.6c-7.6,8.6-32.4,72.4-54.3,140c-48.6,149.6-120,319.1-168.6,399.1
		c-69.5,114.3-110.5,148.6-350.5,289.6c-134.3,79.1-236.2,148.6-322.9,220l-62.9,52.4l25.7,27.6c45.7,47.6,107.6,72.4,208.6,82.9
		c109.5,11.4,130.5,16.2,180,40c48.6,23.8,583,553.4,601.1,595.4c25.7,59.1,12.4,104.8-49.5,173.4c-29.5,33.3-31.4,39.1-21.9,63.8
		c5.7,15.2,11.4,61,12.4,101.9c1,71.4,1.9,74.3,29.5,91.4c35.2,21,57.2,52.4,66.7,94.3c10.5,49.5-22.9,102.9-128.6,205.8
		c-52.4,51.4-95.3,100-95.3,108.6c1,51.4,74.3,144.8,114.3,144.8C5709.4,4951.4,5731.3,4935.2,5749.4,4916.1z M4998.8,4737.1
		c17.1-8.6,49.5-34.3,73.3-58.1l41.9-42.9l-46.7,21c-58.1,24.8-140,33.3-194.3,18.1c-24.8-5.7-59.1-26.7-83.8-49.5l-41.9-38.1
		l10.5,31.4C4793,4722.8,4909.2,4779.9,4998.8,4737.1z M5636.1,4628.5c89.5-89.5,102.9-106.7,97.2-125.7
		c-8.6-28.6-22.9-42.9-50.5-51.4c-19.1-5.7-36.2,7.6-117.2,87.6c-53.3,51.4-100,101-104.8,109.5c-17.1,32.4,18.1,80,62.9,82.9
		C5528.4,4732.3,5578.9,4685.6,5636.1,4628.5z M5057.8,4577c49.5-24.8,134.3-108.6,159.1-155.3c45.7-89.5,18.1-174.3-59.1-186.7
		c-17.1-1.9-62.9,29.5-182.9,125.7c-170.5,137.2-180,149.6-145.7,199.1C4867.3,4613.2,4970.2,4621.8,5057.8,4577z M5499.8,4489.4
		l32.4-33.3l-30.5-30.5l-30.5-31.4l-35.2,35.2l-35.2,36.2l27.6,28.6c15.2,15.2,30.5,28.6,33.3,28.6
		C5464.6,4522.7,5481.7,4507.5,5499.8,4489.4z M5709.4,4017.9c0-17.1-61-84.8-263.9-287.7c-303.9-304.8-306.7-306.7-457.2-322
		c-174.3-18.1-188.6-27.6-455.3-295.3l-181-181l-206.7,206.7l-207.7,207.7l152.4,152.4l153.4,153.4l47.6-46.7
		c65.7-62.9,130.5-92.4,206.7-92.4c101.9,0,168.6,50.5,192.4,143.8l11.4,43.8l54.3,5.7c98.1,8.6,172.4,62.9,196.2,143.8
		c7.6,25.7,14.3,56.2,14.3,68.6c0,16.2,6.7,21.9,36.2,26.7c77.2,11.4,152.4,91.4,161,170.5c4.8,39.1,8.6,44.8,33.3,49.5
		c40,9.5,99.1,69.5,111.5,114.3c14.3,52.4,12.4,77.2-7.6,137.2l-18.1,51.4l213.4-213.4C5658.9,4092.2,5709.4,4036,5709.4,4017.9z
		 M4921.6,4307.4c150.5-122.9,168.6-141,168.6-166.7c0-65.7-58.1-122.9-125.7-122.9c-31.4,0-53.3,15.2-198.1,134.3
		c-117.2,97.2-161.9,141-161.9,155.3c1,52.4,83.8,139.1,133.4,139.1C4745.4,4446.5,4828.3,4383.7,4921.6,4307.4z M5613.2,4389.4
		c21-10.5,32.4-75.3,21.9-121.9l-6.7-31.4l-52.4,52.4l-51.4,53.3l27.6,28.6C5581.8,4401.8,5587.5,4403.7,5613.2,4389.4z
		 M4718.7,4094.1c173.4-143.8,183.8-158.1,161.9-223.9c-5.7-19.1-26.7-44.8-45.7-60c-28.6-21.9-42.9-25.7-92.4-25.7h-59.1
		l-130.5,122.9c-71.4,67.6-135.3,131.5-140,141.9c-14.3,26.7-1.9,77.2,26.7,112.4c30.5,35.2,76.2,65.7,101.9,65.7
		C4551.1,4227.4,4631.1,4167.4,4718.7,4094.1z M4498.7,3852.1c127.6-127.6,127.6-127.6,121-162.9c-13.3-71.4-56.2-104.8-130.5-101.9
		c-69.5,2.9-165.7,71.4-204.8,145.7c-24.8,48.6-28.6,131.5-8.6,175.3c16.2,32.4,61.9,71.4,85.7,71.4
		C4367.2,3979.8,4428.2,3922.6,4498.7,3852.1z M4277.7,2878.6c-5.7-5.7-159.1-93.4-338.2-194.3l-327.7-183.8l-52.4,52.4l-52.4,53.3
		l154.3,274.3c85.7,151.5,172.4,304.8,193.4,341l37.2,64.8l199.1-198.1C4243.4,2935.7,4287.2,2887.2,4277.7,2878.6z M3502.3,2406.1
		c-302-297.2-820.2-788.7-833.5-788.7c-22.9,0-47.6,27.6-43.8,49.5c1.9,9.5,189.6,210.5,417.2,445.8l413.4,428.7l45.7-44.8
		l45.7-45.7L3502.3,2406.1z"/>
	<path class="st1" d="M5159.8,3911.2c-217.2-216.2-228.6-234.3-197.2-299.1s104.8-97.2,159.1-69.5c41,21,387.7,374.4,398.2,405.8
		c13.3,42.9-2.9,89.5-44.8,126.7c-26.7,22.9-41.9,28.6-77.2,28.6h-44.8L5159.8,3911.2z M5436,4007.4c7.6-10.5,12.4-26.7,9.5-36.2
		c-7.6-29.5-349.6-362.9-372.5-362.9c-19.1,0-49.5,31.4-49.5,51.4c0,4.8,80,89.5,178.1,188.6
		C5387.4,4034.1,5407.4,4048.3,5436,4007.4z"/>
</g>
<path class="st2" d="M266.6,392.3c-4.3-10.5-5.9-12.5-7.7-12.5c-1.8,0-3.5,2-7.8,12c-6.8,15.9-10.3,23.9-7.8,29.3s8.8,10.2,15.6,9.8
	c7.6-0.4,13.2-6.9,15-12.6C275.4,413.7,272.5,406.5,266.6,392.3z"/>
<g transform="translate(0.000000,512.000000) scale(0.100000,-0.100000)">
	<path class="st3" d="M1999.7,40.8c-8-18.8,1.7-34,35.4-54.9c46.2-28.8,80.1-33.9,121-18.1c5.3,1.8,7.7-0.9,35.8-38.1l30.2-39.8
		l3.7-26.6c4.5-33.6-1.5-85.2-13.3-115.6c-15.2-38.6-32.6-62.6-66.9-91.9l-29.5-24.8l-14.1,3.9c-18.9,5.5-69,11.9-88.4,11.2
		l-15.5-0.8l-20.9,23.6c-38.7,43.3-104,87.2-125.8,84.5c-6-0.8-13.8-3.4-17.1-6.1c-9.7-7.6-14.4-25.1-10.1-36.5
		c4.2-11.3,2.1-9.7,44.4-34.8c24.1-14.7,55.9-41.9,51.9-45c-1.4-1.1-10.1-5.2-18.8-9s-27.3-13.6-40.8-21.9
		c-29.4-18.5-37.7-28.9-35.7-45.8c1.7-14,8.1-22.2,21.4-27.1c12.8-4.9,23.3-1.2,50.8,17.3c24.3,16.4,59.2,29.4,90.5,33.6
		c36.2,5,37.4,3.9,20.4-17.4c-8-9.8-26.7-28.4-41.4-41.2c-37.8-32.2-42.9-45.1-25.8-66.9c5-6.3,10.3-9.2,19.5-10.2
		c12.5-1.4,12.8-1.3,41.6,21.4c32,25.2,54.9,49.9,74.8,80.4c7.3,11.2,14.4,21.1,16,22.5c4.6,3.7,46.7-9.5,71.9-22.6
		c42.6-21.8,81.2-61.2,101.9-104.5c12.5-25.9,21.9-66.7,22.7-97l0.9-23.6l-25.3-8.6c-35-11.8-67.2-29.8-100.1-55.8
		c-27.3-21.6-27.9-21.9-29.3-34.5c-1.1-9.1,0.4-14.9,5.4-21.2c17.1-21.8,31-19.9,71.1,9.3c15.8,11.3,38.3,25.1,49.7,30.5
		c24.7,11.5,25.3,10.2,12.1-23.8c-11.4-29.4-32.2-60.3-53.9-80.1c-24.3-22.3-30.3-31.8-28.7-45.4c1.7-14,8.1-22.2,21.4-27.1
		c16-5.9,28.1-0.2,52.9,24c11.2,11.2,25.1,26.9,30.9,34.5c5.8,7.6,11.6,15,13.2,16.3c5.1,4,29.8-47.2,38.1-78.7
		c5.5-21.9,13.6-33.2,26.7-36.3c25.7-6.1,45,15.5,38.9,43.7c-9.1,41.9-32.2,91.6-57.1,123.8l-14.3,18.1l7.1,28.3
		c3.9,15.6,7.6,41.7,8,58.1c0.8,28.4,1.3,30.1,12.2,41.4c23.9,23.9,80.2,51,117.7,56.2c45.8,6.6,89.6,0.8,129.2-17.1l21.7-9.6
		l86.4-109.6c95.6-121.4,108-134.6,155.3-166.8c99.3-67.4,220.2-90.3,336.2-63.2c56,13.1,49.1,8.9,158.3,94.9l97.8,77.1l12.7,20.2
		c32.3,52.1,51.8,109.1,59.2,175.3c11.5,102-9.6,194.5-64.7,281.3l-11.1,17.6l23.6,21.4c39.3,35.3,56.8,69.5,60.6,116.8
		c5.2,64.2-25.7,127.7-62,127.4c-11.8,0.1-23.1-8-27.9-20.8c-4.2-11.2-1.9-19.9,10.4-40c11.9-19.6,16.2-37.9,14.4-61.6
		c-2-27.9-22.9-67-27.4-51.4c-9.8,35.8-36.6,78.3-55.5,88.9c-19.6,10.8-45.1-3.4-47.1-25.8c-0.9-9.3,1.4-14.2,17.1-36.7
		c18.9-27.4,23.6-41.5,22.8-66.8l-0.4-12.9l-13.7,1.1c-7.6,0.7-20.7,4.9-29,9.4c-23.5,12.8-35.7,33.4-44.4,73.8
		c-5.2,26.1-8.1,33.6-14.9,40.4c-10.2,10-20.5,12.1-34.3,7.2c-8.7-2.9-11.5-5.9-16.2-15.4c-4.9-9.7-4.6-16.6,1.9-47.2
		c12.4-60.1,34-93.4,73.9-115.3c16.5-9,15.7-10.4-11.8-16.8c-35-8-66.5,1.8-95.5,29.5c-17.5,16.7-29.5,20.1-44.4,12.4
		c-26.9-14.2-22-45.2,11.3-73.1c41.7-35.1,105.8-46.6,160.5-29.3c13.7,4.5,26.3,11.4,46.6,26.1l28,19.7l7.9-11.9
		c69.8-107.5,78.1-244.6,21.1-358.6c-107.2-215.5-387.9-268.7-567.2-107.3c-17.6,15.9-37.1,39.1-105.2,125.6
		c-90.2,114.5-86.7,109.1-90.5,143.7c-3.2,30.4-1.9,52.7,5.4,81.2c12.9,51.3,39.9,92.3,82.3,125.7l25.2,19.8l16.2-2.1
		c26.4-3.1,50.3-2.7,72,1.8l20.5,4l49-37.8c44-34.4,50.3-38.5,61.1-38.6c24.2-0.9,41.7,26.2,30.9,47c-4,7.5-42,39.9-72,61
		c-3.9,2.4-3,4.3,5.4,11c14.8,11.6,37.1,40.6,39.7,51.2c5.3,22.7-14.4,43.6-37.1,39.5c-10.5-2-12.3-3.3-30.1-24.1
		c-15.6-18.6-21.5-23.6-37.4-32.2c-24.3-13.3-53.3-19.2-85-17c-106.1,7.1-195.5,95.3-206.1,203.3c-1.8,16.7-0.2,22.7,11.3,47.3
		c7.1,15.4,14.4,29,16.4,30.5c1.7,1.3,14.2,0.6,27.4-2c13.5-2.7,35.4-5.1,49-5.4c22.1-0.7,25,0.1,32.7,8.2
		c14.7,15.2,12.6,39.4-4.2,51.2c-3.2,2.1-22.1,6.1-41.5,8.9l-35.3,4.4l2.8,8.9c8.6,26.4,4.1,84-7.6,98.8c-2.3,2.9-1,28.2,2.9,63.1
		c3.7,32.3,5.6,62.1,4,66.7c-5.3,17.7-28.3,26-45.8,16.8c-12.2-6.4-15.3-13.9-19.8-50.1l-4-30.2l-17.1,5.8
		c-35.2,12.3-92.7,10.2-110.9-4.2c-9.7-7.6-14.4-25.1-10.1-37c6.3-17,21.8-23.2,47.9-18.4c50.2,9.4,89.5-13.5,98-56.6
		c4.2-22.2-1-39.6-32-104.4l-30.2-63.8L2522-47.4c-36.3-26.7-62.5-38.3-103.9-44.9c-51.4-8.4-134.5,11.4-154.5,36.8l-8.7,11.2
		l11.1,13.4c15.7,19.5,31,53.9,32.4,73c0.9,12.8-0.4,18.5-6.3,26c-9,11.4-23.2,15.5-37.2,10.3c-12.4-4.6-18.6-13.8-22-33.9
		c-2.4-13.3-10.5-31-15.8-35.2c-1.4-1.1-19.8,19.7-47.8,54.2c-45,55.6-45.6,56.3-56.1,57.9c-14.7,2.2-29-5.5-34.5-18.9
		c-6.5-14.6-3.4-23.1,18.4-50.7c14.5-18.4,18.4-24.8,15.6-25.8c-7.1-2.4-26.3,5.5-48.3,20C2032.4,66.6,2009.9,65,1999.7,40.8z
		 M2326.6-154.4c66-15,155.5,0.9,211.9,37.8c15.9,10.6,18.9,11.8,20.1,7.3c23.6-86.2,74.8-150.7,153.4-194.3
		c4.5-2.8,3.7-4.2-5.3-11.2c-31.1-24.9-64.7-78.8-81.1-130.7c-7.7-24.6-14-71.9-12.4-92.9l1.5-14.9l-12.8,3.3
		c-22.6,6.2-65.4,11.3-88.5,10.7c-47.9-0.9-122.5-24.3-151.8-47.3c-5.9-4.5-11.4-7.4-12.4-6.2s-3.3,8.7-5.8,16.7
		c-17.8,66.4-75.8,140.1-136.2,172.9c-7.2,4.1-13.9,8.2-14.9,9.4c-1,1.2,3.1,6,9,10.6c25.9,20.4,61.7,76.6,77.1,120.8
		c8.3,23.8,15.7,72.8,14.7,97.9c-0.6,17.6-0.2,18.7,6.2,17C2303.4-148.8,2315.5-151.8,2326.6-154.4z"/>
	<path class="st3" d="M2352.4-266.4c-17.7-21.4-26.3-43.8-29-74.2c-2.9-37.2,3.1-55.6,29-88.6c26.1-33.2,42.5-43,80.2-49
		c76.1-11.5,141.4,37.6,150.5,113.4c12.5,105.2-97.8,180-191.9,130.5C2371.2-244.9,2368.3-247.1,2352.4-266.4z M2448.9-284.8
		c46.1,2.7,79.8-39.9,66.4-84.3c-6.2-20.6-26.9-40-46.9-44c-55.8-11-98,43.3-73,93.2C2404.6-301.3,2428.1-285.8,2448.9-284.8z"/>
</g>
<g transform="translate(0.000000,512.000000) scale(0.100000,-0.100000)">
	<path class="st3" d="M3899.4,40.8c-8-18.8,1.7-34,35.4-54.9c46.2-28.8,80.1-33.9,121-18.1c5.3,1.8,7.7-0.9,35.8-38.1l30.2-39.8
		l3.7-26.6c4.5-33.6-1.5-85.2-13.3-115.6c-15.2-38.6-32.6-62.6-66.9-91.9l-29.5-24.8l-14,3.9c-18.9,5.5-69,11.9-88.4,11.2l-15.5-0.8
		l-20.9,23.6c-38.7,43.3-104,87.2-125.8,84.5c-6-0.8-13.8-3.4-17.1-6.1c-9.7-7.6-14.4-25.1-10.1-36.5c4.2-11.3,2.1-9.7,44.4-34.8
		c24.1-14.7,55.9-41.9,51.9-45c-1.4-1.1-10.1-5.2-18.8-9c-8.7-3.8-27.3-13.6-40.8-21.9c-29.4-18.5-37.7-28.9-35.7-45.8
		c1.7-14,8.1-22.2,21.4-27.1c12.8-4.9,23.3-1.2,50.8,17.3c24.3,16.4,59.2,29.4,90.5,33.6c36.2,5,37.4,3.9,20.4-17.4
		c-8-9.8-26.7-28.4-41.4-41.2c-37.8-32.2-42.9-45.1-25.8-66.9c5-6.3,10.3-9.2,19.5-10.2c12.5-1.4,12.8-1.3,41.6,21.4
		c32,25.2,54.9,49.9,74.8,80.4c7.3,11.2,14.4,21.1,16,22.5c4.6,3.7,46.7-9.5,71.9-22.6c42.6-21.8,81.2-61.2,101.9-104.5
		c12.5-25.9,21.9-66.7,22.7-97l0.9-23.6l-25.3-8.6c-35-11.8-67.2-29.8-100.1-55.8c-27.3-21.6-27.9-21.9-29.3-34.5
		c-1.1-9.1,0.4-14.9,5.4-21.2c17.1-21.8,31-19.9,71.1,9.3c15.8,11.3,38.3,25.1,49.7,30.5c24.7,11.5,25.3,10.2,12.1-23.8
		c-11.4-29.4-32.2-60.3-53.9-80.1c-24.3-22.3-30.3-31.8-28.7-45.4c1.7-14,8.1-22.2,21.4-27.1c16-5.9,28.1-0.2,52.9,24
		c11.2,11.2,25.1,26.9,30.9,34.5c5.8,7.6,11.6,15,13.2,16.3c5.1,4,29.8-47.2,38.1-78.7c5.5-21.9,13.6-33.2,26.7-36.3
		c25.7-6.1,45,15.5,38.9,43.7c-9.1,41.9-32.2,91.6-57.1,123.8l-14.3,18.1l7.1,28.3c3.9,15.6,7.6,41.7,8,58.1
		c0.8,28.4,1.3,30.1,12.2,41.4c23.9,23.9,80.2,51,117.7,56.2c45.8,6.6,89.6,0.8,129.2-17.1l21.7-9.6l86.4-109.6
		c95.6-121.4,108-134.6,155.3-166.8c99.3-67.4,220.2-90.3,336.2-63.2c56,13.1,49.1,8.9,158.3,94.9l97.8,77.1l12.7,20.2
		c32.3,52.1,51.8,109.1,59.2,175.3c11.5,102-9.6,194.5-64.7,281.3l-11.1,17.6l23.6,21.4c39.3,35.3,56.8,69.5,60.6,116.8
		c5.2,64.2-25.7,127.7-62,127.4c-11.8,0.1-23.1-8-27.9-20.8c-4.2-11.2-1.9-19.9,10.4-40c11.9-19.6,16.2-37.9,14.4-61.6
		c-2-27.9-22.9-67-27.4-51.4c-9.8,35.8-36.6,78.3-55.5,88.9c-19.6,10.8-45.1-3.4-47.1-25.8c-0.9-9.3,1.4-14.2,17.1-36.7
		c18.9-27.4,23.6-41.5,22.8-66.8l-0.4-12.9l-14.1,1.4c-7.6,0.7-20.7,4.9-29,9.4c-23.5,12.8-35.7,33.4-44.4,73.8
		c-5.2,26.1-8.1,33.6-14.9,40.4c-10.2,10-20.5,12.1-34.3,7.2c-8.7-2.9-11.5-5.9-16.2-15.4c-4.9-9.7-4.6-16.6,1.9-47.2
		c12.4-60.1,34-93.4,73.9-115.3c16.5-9,15.7-10.4-11.8-16.8c-35-8-66.5,1.8-95.5,29.5c-17.6,16.8-29.6,20.2-44.4,12.5
		c-26.9-14.2-22-45.2,11.3-73.1c41.7-35.1,105.8-46.6,160.5-29.3c13.7,4.5,26.3,11.4,46.6,26.1l28,19.7l7.9-11.9
		c70-107.9,78.3-244.9,21.4-358.9c-107.2-215.5-387.9-268.7-567.2-107.3c-17.6,15.9-37.1,39.1-105.2,125.6
		c-90.2,114.5-86.7,109.1-90.5,143.7c-3.2,30.4-1.9,52.7,5.4,81.2c12.9,51.3,39.9,92.3,82.3,125.7L4693-329l16.2-2.1
		c26.4-3.1,50.3-2.7,72,1.8l20.5,4l49-37.8c44-34.4,50.3-38.5,61.1-38.6c24.2-0.9,41.7,26.2,30.9,47c-4,7.5-42,39.9-72,61
		c-3.9,2.4-3,4.3,5.4,11c14.8,11.6,37.1,40.6,39.7,51.2c5.3,22.7-14.4,43.6-37.1,39.5c-10.5-2-12.3-3.3-30.1-24.1
		c-15.6-18.6-21.5-23.6-37.4-32.2c-24.4-13.4-53.4-19.4-85-17.1c-106.1,7.1-195.5,95.3-206.1,203.3c-1.8,16.7-0.2,22.7,11.3,47.3
		c7.1,15.4,14.4,29,16.4,30.5c1.7,1.3,14.2,0.6,27.4-2c13.5-2.7,35.4-5.1,49-5.4c22.1-0.7,25,0.1,32.7,8.2
		c14.7,15.2,12.6,39.4-4.2,51.2c-3.2,2.1-22.1,6.1-41.5,8.9l-35.3,4.4l2.8,8.9c8.6,26.4,4.1,84-7.6,98.8c-2.3,2.9-1,28.2,2.9,63.1
		c3.7,32.3,5.6,62.1,4,66.7c-5.3,17.7-28.3,26-45.8,16.8c-12.2-6.4-15.3-13.9-19.8-50.1l-4-30.2l-17.1,5.8
		c-35.2,12.3-92.7,10.2-110.9-4.2c-9.7-7.6-14.4-25.1-10.1-37c6.3-17,21.8-23.2,47.9-18.4c50.2,9.4,89.5-13.5,98-56.6
		c4.2-22.2-1-39.6-32-104.4L4454-23.9l-32.4-23.6c-36.3-26.7-62.5-38.3-103.9-44.9c-51.4-8.4-134.5,11.4-154.5,36.8l-8.7,11.2
		l11.1,13.4c15.7,19.5,31,53.9,32.4,73c0.9,12.8-0.4,18.5-6.3,26c-9,11.4-23.2,15.5-37.2,10.3c-12.4-4.6-18.6-13.8-22-33.9
		c-2.4-13.3-10.5-31-15.8-35.2c-1.4-1.1-19.8,19.7-47.8,54.2c-45,55.6-45.6,56.3-56.1,57.9c-14.7,2.2-29-5.5-34.5-18.9
		c-6.5-14.6-3.4-23.1,18.4-50.7c14.5-18.4,18.4-24.8,15.6-25.8c-7.1-2.4-26.3,5.5-48.3,20C3932.1,66.6,3909.5,65,3899.4,40.8z
		 M4226.3-154.4c66-15,155.5,0.9,211.9,37.8c15.9,10.6,18.9,11.8,20.1,7.3c23.6-86.2,74.8-150.7,153.4-194.3
		c4.5-2.8,3.7-4.2-5.3-11.2c-31.1-24.9-64.7-78.8-81.1-130.7c-7.7-24.6-14-71.9-12.4-92.9l1.5-14.9l-12.8,3.3
		c-22.6,6.2-65.4,11.3-88.5,10.7c-47.9-0.9-122.5-24.3-151.8-47.3c-5.9-4.5-11.4-7.4-12.4-6.2c-1,1.2-3.3,8.7-5.8,16.7
		c-17.8,66.4-75.8,140.1-136.2,172.9c-7.2,4.1-13.9,8.2-14.9,9.4c-1,1.2,3.1,6,9,10.6c25.9,20.4,61.7,76.6,77.1,120.8
		c8.3,23.8,15.7,72.8,14.7,97.9c-0.6,17.6-0.2,18.7,6.2,17C4203.1-148.8,4215.2-151.8,4226.3-154.4z"/>
	<path class="st3" d="M4252.1-266.4c-17.7-21.4-26.3-43.8-29-74.2c-2.9-37.2,3.1-55.6,29-88.6c26.1-33.2,42.5-43,80.2-49
		c76.1-11.5,141.4,37.6,150.5,113.4c12.4,105.2-97.9,180-191.9,130.5C4270.9-244.9,4267.9-247.1,4252.1-266.4z M4348.7-284.8
		c46.1,2.7,79.8-39.9,66.4-84.3c-6.2-20.6-26.9-40-46.9-44c-55.8-11-98,43.3-73,93.2C4304.3-301.3,4327.9-285.8,4348.7-284.8z"/>
</g>
</svg>
