<svg id="레이어_1" data-name="레이어 1" xmlns="http://www.w3.org/2000/svg" width="511.946" height="512.0068" viewBox="0 0 511.946 512.0068"><defs><style>.cls-1{fill:#315e8b;}</style></defs><path class="cls-1" d="M2.5,2.5C.3,4.6,0,5.8,0,11.9,0,22.1,2.6,40.5,5.6,50.6,8.8,61.8,17.2,79.3,23.9,88.7,30.6,98.2,45.1,113.3,55,121l7.9,6.3L52.6,137.4C26.2,163.4,10.2,192.7,3,228c-5,24.4-3.2,50,5.1,76,6,18.7,10.5,23.3,17.4,17.9,3.4-2.7,3.1-5.4-1.8-19.4-6-16.8-8.1-28.7-8.1-46.5,0-24,4.9-43.4,16.4-65.9,15.4-29.8,38.7-53.3,71.2-71.5,33.6-18.8,45.4-27.1,59.3-41.8,9.5-10,15.5-19,19.8-29.8,2.8-7.2,5.7-20,5.7-25.4,0-6.6-.1-6.6,13.6-6.6H214v2.7c0,4.9-2.9,21.6-4.9,28.9-6.2,22-20.9,43.2-42.4,61.1-11.8,9.8-23.3,17.4-43.3,28.7-21.5,12-32.6,19.9-43.8,31.2C55,192.1,40.7,224.7,40.7,256c0,36.7,19.3,74.2,51.6,99.8l7.7,6.1-11.7,6.9-11.8,7-3.7-3C66.7,368,55,356,48.5,348c-5.3-6.6-6.6-7.5-9.7-7.8-4.5-.4-7.8,2.4-7.8,6.7,0,3.9,8,14.2,21.1,27.2l10.7,10.7L55,391c-10.4,8.1-25.1,23.6-31.8,33.3-6.8,9.9-14.4,25.8-17.6,37.1C2.6,471.5,0,489.8,0,500.1c0,6.1.3,7.3,2.5,9.4L4.9,512H27.8c27.7,0,26.6.5,27.6-13,.4-4.7.9-10.2,1.2-12.3l.6-3.7H171.8l.5,2.2c.3,1.3.9,6.9,1.3,12.6,1,14.8-.2,14.2,28.1,14.2h22.4l2.6-2.6c2.6-2.6,2.6-2.6,2-14.8-1.8-35.9-13.4-62.8-38.3-88.5A206.89,206.89,0,0,0,173.1,390l-7-5.5,8.3-7.7c39.5-36.6,60.2-91.5,53.1-140.7-3.1-21-10.4-42.8-15.1-45a13.3963,13.3963,0,0,0-3.8-1.1c-2.4,0-6.6,4.1-6.6,6.5,0,1.2,1.8,7.7,4,14.2,7.8,23.4,9.7,44.9,6,66.8-7.3,42.4-31.7,79.8-69,105.4-4.7,3.2-14.8,9.3-22.5,13.6-25.2,13.9-37.2,22.2-49.8,34.4-18.2,17.6-27.8,36.7-29.4,58.8l-.6,7.3H14.8l.7-6.8c1.9-19.4,7.6-37.3,16.2-50.9,14.7-23.5,32.1-39,64.8-57.7,40.8-23.5,57.7-37.8,72.8-61.9,14.1-22.4,21.4-51,18.8-73.4a130.9961,130.9961,0,0,0-12.9-43.9c-8.3-16.4-23.4-34.7-38.5-46.3-3.7-2.9-6.5-5.7-6.2-6.1.3-.5,4-2.7,8.3-5.1,4.2-2.3,8.9-5,10.4-6.1,1.7-1.2,3.6-1.7,4.8-1.3,2.9.9,21.6,19.8,28,28.3,5.6,7.4,8,8.9,12.6,7.8,3.2-.8,5.6-6,4.3-9.4-1.7-4.4-10.2-14.6-21.4-25.8l-11.2-11.1,6.9-5.4c10.8-8.4,26.8-25.5,34.2-36.6A130.799,130.799,0,0,0,229,12.7c0-6.9-.3-8.1-2.5-10.2L224.1,0H201.7c-28.3,0-27.1-.6-28.1,14.2-.4,5.7-1,11.3-1.3,12.5l-.5,2.3H57.2l-.6-3.8c-.3-2-.8-7.5-1.2-12.2-1-13.5.1-13-27.6-13H4.9ZM41,19.3c0,10,4,24.9,9.6,35.7,7.6,14.5,22.5,30.3,39.6,42.1l9,6.2-2.7,1.6c-1.5.9-6.9,4.1-11.9,7.3l-9.1,5.6-4-2.9c-9.3-6.8-20.8-17.3-27-24.6-18-21.1-26-40.2-29-69.1L14.8,15H41ZM166.6,45.7c-4.2,11.1-22.3,30.1-39.9,41.7l-11.8,7.9-7.7-4.8C89.3,79.5,73.5,64.7,65.9,52A58.4782,58.4782,0,0,1,62,44.7c0-.4,23.7-.7,52.6-.7C164.3,44,167.2,44.1,166.6,45.7Zm-43.4,119c7.7,5.5,26.5,24,28.8,28.2,1.1,2.1,1,2.1-25,2.1H100.9l-2.4,2.5a6.25,6.25,0,0,0,0,10l2.4,2.5H162l1.8,3.7c4.1,8.1,9.2,26.5,9.2,32.9V249H55.8l.7-5.7c2.8-22.5,16.2-48.1,34.6-66,7.4-7.1,21.6-18.3,23.3-18.3C114.9,159,118.9,161.6,123.2,164.7ZM173,265.9c0,3.1-2.7,15.1-5,22.1-2.9,8.7-11,24.1-16.5,31.5-9.7,13-34.3,34.6-37.8,33.2-6-2.3-29.2-23.5-35.5-32.5L75.9,317h25.9c24.7,0,26.1-.1,28.6-2.1a6.75,6.75,0,0,0,0-10.8c-2.6-2-3.8-2.1-33.1-2.1H66.9l-2.5-5.6a136.686,136.686,0,0,1-7.9-27.2l-.7-5.2h58.6C171.7,264,173,264,173,265.9Zm-9.3,135.9c22,17.6,36.8,37.6,44.2,59.7,2.7,8.2,6.1,26.4,6.1,32.9V497H201.5c-14.2,0-12.8,1-14-10.7-1.3-13.9-7.4-28.9-16.7-41.5-6.5-8.8-20.2-21.8-31.5-29.7l-9.2-6.5,7.7-4.6c4.2-2.5,9.5-5.8,11.7-7.3s4.1-2.7,4.2-2.7S158.3,397.5,163.7,401.8Zm-36.8,22.9c17.4,11.5,35.5,30.5,39.7,41.5.6,1.7-2.3,1.8-52,1.8-28.9,0-52.6-.3-52.6-.7a53.1037,53.1037,0,0,1,4.1-7.6c7.4-12.4,23.1-27,40.9-38.1,4.1-2.5,7.6-4.6,7.9-4.6C115.1,417,120.5,420.5,126.9,424.7Z" transform="translate(0 0.0034)"/><path class="cls-1" d="M380.6,138.1a120.443,120.443,0,0,0-47.7,16,86.0243,86.0243,0,0,0-11.1,7.6c-3.6,3.4-3.7,7.5-.2,11,3.2,3.2,6.4,2.7,13.2-2.2,6.7-4.8,22.1-11.9,31.1-14.4,34.1-9.4,71.7-.2,97.3,23.8,9.8,9.2,15.6,16.6,21.4,27.5,16.5,31,16.5,66.2,0,97.2-12.2,23-33,40.9-57.1,49.1-27.2,9.3-54.3,7.5-80-5.2-29.3-14.6-49.1-40.4-55.7-72.5-1.1-5.2-2.6-10.2-3.4-11.1s-4.8-3.1-8.9-5-7.4-3.6-7.4-3.9,3.3-2,7.4-3.9,8.1-4.1,9-5c.8-1,2.1-5.1,2.9-9.2A108.462,108.462,0,0,1,306,200.3c1.6-2.6,3-6,3-7.5,0-3.9-3.2-6.8-7.5-6.8-3,0-4,.7-6.6,4.2-6.9,9.5-14.3,26.8-17.1,40.3l-1.3,6L263.4,243c-7.2,3.6-13.9,7.1-14.8,7.9-2.1,1.8-2.1,8.4,0,10.2.9.8,7.6,4.3,14.8,7.9l13.1,6.5,1.1,5.5c4.7,24.5,20.8,50.7,40.8,66.8,47.7,38.4,115.8,35,158.5-7.9,55.5-55.8,43.5-146.8-24.8-186.9-13.4-7.8-30.6-13.2-48-14.9C392.8,136.9,392,136.9,380.6,138.1Z" transform="translate(0 0.0034)"/><path class="cls-1" d="M371.5,190.6c-8.8,5.2-16.6,10.2-17.2,11.1-.9,1.2-1.3,6.5-1.3,17.9v16.3l-14.5,8.6c-10.3,6.1-14.9,9.4-15.5,11.1-1.3,3.2-1.3,36.5-.1,39.7.7,1.7,5.5,5.1,15.5,11.1l14.6,8.7V321c0,6.8,2.1,10,6.6,10,5.6,0,8.4-4.1,8.4-12.4v-4.1l11.1-6.5c6.2-3.6,11.4-6.4,11.8-6.3.3.1,6.7,3.8,14.2,8.2,7.5,4.5,14.5,8.1,15.6,8.1,1,0,9.5-4.4,18.8-9.9,13-7.6,17.2-10.5,18.2-12.7,1.3-3.1,1.7-34.8.4-39.4-.5-1.9-4.2-4.6-15.4-11.3L428,235.9V211.2l6.7-3.9c7.8-4.5,9.7-7.7,7.2-12.1-2.6-4.7-6-5.1-13.4-1.4-3.6,1.8-7,3.2-7.6,3.2s-5.9-2.9-11.8-6.4c-13.8-8.3-16.5-9.6-19.3-9.5C388.5,181.1,380.3,185.4,371.5,190.6Zm33.8,15.2,7.7,4.5v26.2l-10.8,6.2c-6,3.5-11.2,6.3-11.7,6.3s-5.7-2.8-11.7-6.3L368,236.5V210.2l11.2-6.6,11.3-6.5,3.5,2.1C395.9,200.3,401,203.3,405.3,205.8ZM371.8,256l11.2,6.5v13l-.1,13-10.8,6.2c-5.9,3.5-11.4,6.3-12.2,6.3-.8-.1-6.1-2.9-11.9-6.3l-10.5-6.3V262.6l11-6.7c6.1-3.7,11.2-6.6,11.6-6.5C360.4,249.4,365.6,252.4,371.8,256Zm65.7,3,6,3.7v25.6L432.2,295l-11.4,6.8-11.4-6.7L398,288.5v-26l11.3-6.6,11.2-6.7,5.5,3.1C429,254,434.2,257,437.5,259Z" transform="translate(0 0.0034)"/></svg>