<?xml version="1.0" encoding="utf-8"?>
<!-- Generator: Adobe Illustrator 25.4.1, SVG Export Plug-In . SVG Version: 6.00 Build 0)  -->
<svg version="1.1" id="레이어_1" xmlns="http://www.w3.org/2000/svg" xmlns:xlink="http://www.w3.org/1999/xlink" x="0px"
	 y="0px" viewBox="0 0 296.6 221" style="enable-background:new 0 0 296.6 221;" xml:space="preserve">
<style type="text/css">
	.st0{fill:#315E8B;stroke:#315E8B;stroke-width:4;stroke-miterlimit:10;}
</style>
<path class="st0" d="M4.6,5L0,9.9V221h284.6l5.2-5.3l5.2-5.3V106.8c0-67.9,0.4-103.9,1-104.3c0.6-0.3,0.8-1,0.5-1.6
	C296.1,0.4,239.9,0,152.6,0H9.3L4.6,5z M15.5,5.5C12.7,7.9,10.5,9,8.3,9c-4,0-4.1-0.6-0.6-4.2C9.9,2.5,11.2,2,14.9,2l4.6,0.1
	L15.5,5.5z M37,2.5c0,0.3-1.8,1.7-4,3.1l-4,2.7V31H15V8.5l3.7-3.2c3.5-3,4.4-3.2,11.1-3.3C33.7,2,37,2.2,37,2.5z M45,5
	c-3.3,2.9-10,4.3-10,2.1c0-1.8,6.6-5.1,10-5h3.5L45,5z M65,2.5c0,0.3-1.5,1.8-3.2,3.4l-3.3,2.9l-0.3,11.6L57.8,32H44.1l-0.3-11.6
	L43.5,8.7l4.4-3.3C51.8,2.4,53,2,58.6,2C62.1,2,65,2.2,65,2.5z M74,5c-3.2,2.7-10,4.3-10,2.3s5.8-5.2,9.5-5.2h4L74,5z M92,2.6
	c-0.8,1.2-1.8,2.2-3,3c-2.9,2.5-2.9,2.6-3.2,14.2l-0.3,11.7l-7.2,0.3L71,32.1V10.2l4.8-4.1C80.1,2.3,81,2,86.3,2
	C89.4,2,92,2.3,92,2.6z M101.5,5c-2.4,2.5-3.6,3-7.4,3l-4.6-0.1L93,5c2.5-2.2,4.4-3,7.4-3h4L101.5,5z M118.5,4
	c-1,1.1-2.2,1.9-3.6,2.5c-3.6,1.2-1.8,2.4,3.9,2.7l5.7,0.3l0.3,11.7l0.3,11.8H143V9h8v24h18V10h7.9l0.3,11.2l0.3,11.3l8.8,0.3
	l8.7,0.3V9h8v24h17.9l0.3-11.3l0.3-11.2l3.8-0.3l3.7-0.3V33h17.9l0.3-11.8l0.3-11.7h7.7l0.1,11.5l0.2,11.5h18l0.3-11.3l0.3-11.2h8.6
	l0.6,16.7c0.4,9.1,0.7,19.5,0.7,23V56H2V11h11v22h18V10h11v24h18V10h8.9l0.3,11.7l0.3,11.8l8.7,0.3l8.7,0.3l0.3-11.8l0.3-11.8h9
	l0.3,11.7L97.1,34H115V22.6c0-6.6-0.4-11.7-1-12.1s-1,3.3-1,10.4V32H98V10.9l4.8-4.4c4.5-4.3,4.9-4.5,11.1-4.5
	C120.2,2,120.3,2,118.5,4z M130,2.6c0,1.7-4.9,4.3-8,4.3h-3.5l2.8-2.4C123.8,2.3,130,0.9,130,2.6z M147,2.7c0,0.5-1.3,1.7-3,2.8
	l-2.9,2l-0.3,12l-0.3,12l-6.7,0.3l-6.7,0.3l-0.3-11.7l-0.3-11.6l3.8-3.4c3.4-3.1,4.2-3.4,10.2-3.4C144.1,2,147,2.3,147,2.7z
	 M155,4.5c-1.5,1.7-3.7,2.6-5.9,2.5l-3.6-0.1l2.8-2.4c1.6-1.5,3.7-2.4,5.9-2.5h3.1L155,4.5z M171,5.2l-3.5,3.2L167,20l-0.5,11.5h-14
	l-0.3-11l-0.3-11l4.3-3.7c4.1-3.6,4.7-3.7,11.3-3.7h7L171,5.2z M184,2.5c0,1.9-5.9,5.4-9,5.4h-3.5L175,5C178,2.4,184,0.8,184,2.5z
	 M200,2.8c0,0.4-1.3,1.6-3,2.5l-2.9,1.8l-0.3,11.7l-0.3,11.7l-7.2,0.3l-7.3,0.3V20.3l0.1-10.8l4.7-3.8C188,2.4,189.1,2,194.2,2
	C197.4,2,200,2.4,200,2.8z M210,2.7c-0.1,1.9-6.2,5-8.7,4.5l-2.7-0.5l3-2.3C204.3,2.2,210,1.1,210,2.7z M229,2.4
	c-1.4,1.2-2.9,2.3-4.5,3.2l-4.4,2.9l-0.3,11l-0.3,11l-7.2,0.3l-7.3,0.3V9.2l4.8-3.6c4.4-3.3,5.2-3.5,12-3.6C225.7,2,229,2.2,229,2.4
	z M238,2.5c0,1.3-8.1,5.6-10.2,5.3s-2-0.5,1.7-3.1C232.9,2.4,238,1,238,2.5z M251.5,4.5C249.9,5.9,248,7,247.3,7
	c-0.9,0-1.3,3.4-1.5,12.2l-0.3,12.3h-14V9.6l5.4-3.8C241.8,2.4,243,2,248.4,2l6.1,0.1L251.5,4.5z M262.9,2.7
	c-0.1,2.1-5.6,5.1-8.2,4.6l-2.8-0.5l3.3-2.4C258.4,2.2,263.1,1.2,262.9,2.7z M278,2.7c0,0.5-1.5,1.8-3.2,3l-3.1,2.2l0.2,11.6
	l0.3,11.6l-7.4-0.3l-7.3-0.3l-0.3-10.1l-0.3-10.1l5.3-4.1c4.7-3.7,5.9-4.2,10.6-4.2C275.6,2,278,2.3,278,2.7z M291,2.7
	c0,2-7.2,5.3-11.2,5.3l-4.3-0.1L279,5c2-2.1,4.8-3.2,7.7-3C289.1,2,291,2.3,291,2.7z M293,27.9v22.9l-3.2,2.1l-3.3,2l-0.3-22.7
	l-0.3-22.7l2.8-2.2c1.5-1.3,3.1-2.3,3.6-2.3C292.7,5,293,15.3,293,27.9z M289.5,213l-3.5,3.5v-159l3.3-2.1l3.2-2.1l0.3,78.1
	l0.2,78.1L289.5,213z M283.5,138.5v80l-140.7,0.3L2,219V58l140.8,0.2l140.7,0.3V138.5z"/>
<path class="st0" d="M9,84c0,1.8,0.7,2,8.5,2s8.5-0.2,8.5-2s-0.7-2-8.5-2S9,82.2,9,84z"/>
<path class="st0" d="M44,93.5c0,1.2,1.7,1.5,9,1.5s9-0.3,9-1.5S60.3,92,53,92S44,92.3,44,93.5z"/>
<path class="st0" d="M98,93.5c0,1.2,1.7,1.5,9,1.5s9-0.3,9-1.5s-1.7-1.5-9-1.5S98,92.3,98,93.5z"/>
<path class="st0" d="M9,100.5c0,1.2,1.6,1.5,8.5,1.5s8.5-0.3,8.5-1.5S24.4,99,17.5,99S9,99.3,9,100.5z"/>
<path class="st0" d="M9,117c0,1.8,0.7,2,8.5,2s8.5-0.2,8.5-2s-0.7-2-8.5-2S9,115.2,9,117z"/>
<path class="st0" d="M9,139v3h17v-6H9V139z"/>
<path class="st0" d="M9,164v3h17v-6H9V164z"/>
<path class="st0" d="M9,183.5c0,1.2,1.6,1.5,8.5,1.5s8.5-0.3,8.5-1.5s-1.6-1.5-8.5-1.5S9,182.3,9,183.5z"/>
<path class="st0" d="M68.5,126c0,1.2,1.7,1.5,9,1.5s9-0.3,9-1.5s-1.7-1.5-9-1.5S68.5,124.8,68.5,126z"/>
<path class="st0" d="M127.8,139c0,1.2,1.7,1.5,9,1.5s9-0.3,9-1.5s-1.7-1.5-9-1.5S127.8,137.8,127.8,139z"/>
<path class="st0" d="M175,100.5c0,1.2,1.7,1.5,9,1.5s9-0.3,9-1.5s-1.7-1.5-9-1.5S175,99.3,175,100.5z"/>
<path class="st0" d="M253.9,127.5c0,1.2,1.7,1.5,9,1.5s9-0.3,9-1.5s-1.7-1.5-9-1.5S253.9,126.3,253.9,127.5z"/>
<path class="st0" d="M229,159.5c0,1.2,1.7,1.5,9,1.5s9-0.3,9-1.5s-1.7-1.5-9-1.5S229,158.3,229,159.5z"/>
<path class="st0" d="M206,185c0,1.2,1.7,1.5,9,1.5s9-0.3,9-1.5s-1.7-1.5-9-1.5S206,183.8,206,185z"/>
</svg>
