<svg xmlns="http://www.w3.org/2000/svg" viewBox="0 0 750.88 756.27"><defs><style>.cls-1{fill:#1f61ae;}</style></defs><g id="레이어_2" data-name="레이어 2"><g id="레이어_1-2" data-name="레이어 1"><g id="레이어_2-2" data-name="레이어 2"><g id="레이어_1-2-2" data-name="레이어 1-2"><path class="cls-1" d="M437.47,54.11c-17.29,30.17-31.94,54.71-32.38,54.71s-3.54-4.14-6.94-9.32C367.69,53.37,314.91,19.07,256.51,7.25c-19.82-3.85-59.73-3.55-80.57.89C112.37,21.45,61.66,57.81,28.83,113.41,9.61,145.92.15,181.7,0,221.63c0,38.3,7.25,68.29,24.39,101.27a218.5,218.5,0,0,0,140.45,111c19.37,4.87,31.24,6.24,53.23,6.24,31.78,0,62.39-6.36,89-18.63l10.65-4.87,20.39,11.82c11.25,6.51,22.18,12.72,24.4,13.9l3.85,2.07,11.38-20.11c6.36-10.93,12.12-20.25,12.86-20.69a2.84,2.84,0,0,1,3.11.59c1,.73,5.61,3.4,10.2,6.06l8.57,4.73L440.57,358l27.94-57.07,6.36,4.29a122.45,122.45,0,0,0,16.71,8.57c9.16,3.85,12.27,4.3,28.68,4.59,21.58.45,21.14.15,35.63,21.14C583.54,380,597.44,433.38,593,481.86c-.89,9.17-1.62,17.5-1.62,18.33,0,1.34-2.81,1.93-9.46,1.93-10.36,0-19.37,2.66-26.47,7.68l-4.74,3.4L402.87,514c-164.1.89-151.21,0-161.89,10.64a34.34,34.34,0,0,0-10.35,25.58c0,14.49,7.5,26.31,20.56,32.83,5,2.49,14.33,2.66,152.28,3.09,133,.3,147.24.59,149.76,2.67,2.5,2.36,2.5,2.66-.74,7.09-1.78,2.5-8.75,10.35-15.52,17.5-17.5,18-37.25,31.24-58,38.44-20.39,7.1-20.69,7.1-150.64,7.1-76.74,0-125.38.58-130.4,1.47-33.74,6.51-50.58,41.24-34.31,71.12,4.88,9.16,11.83,15.37,22.62,20.4l8.14,3.84,237.28.45c178.6.29,239.37,0,245.43-1.34,9.61-2.06,21.73-9.46,27.2-16.41,11.25-14.78,13.75-34.45,6.65-50-4.29-9.31-13.16-18.75-21.58-22.92l-6.25-3.25c-.3-.15,3.1-5.17,7.5-11.08,30.6-41,50.71-91.08,58.26-145.33,2.36-17.6,2.65-60.17.58-77.62-6.36-50.42-23.8-98-50.71-138.23-22.91-34.16-59.43-69.65-93.58-91.08-7-4.28-12-8.75-14.63-12.72-5.63-9-20.56-22-31.06-27.05-9.91-4.88-24.09-8.88-31.34-8.88-2.66,0-4.87-.43-4.87-1.17s11.38-20.71,25.13-44.5c20-34.45,24.83-43.91,23.35-45.39C570.53,58,502.23,18.33,469.86,0,469.4-.28,454.77,24.11,437.47,54.11ZM251.34,31.34c15.07,2.67,39.18,10.5,52,17,26.76,13.31,57.36,39.63,73.48,63.28,12.72,18.75,14,21.73,12,26.91-3.24,7.68-4.87,8-14.78,2.21-5-2.95-9.46-5.32-10-5.32s-28.09,41-61.23,90.92l-60,90.79,10.8,6.34,10.79,6.36L252.59,350.1c-6.5,11.25-11.39,21-10.94,21.73s11.54,7.5,24.55,14.93,23.65,14.05,23.65,14.79c0,1.62-19.22,7.83-34.75,11.08a188.1,188.1,0,0,1-29.27,3.26C126.93,420.47,40.14,348.48,25.89,250,15.67,180.22,44.5,110.45,101.42,67.27,143.41,35.34,198.69,22.18,251.34,31.34Zm260.2,20.71c28.68,16.56,29.55,17.29,27.64,20.43-1,1.64-3.84,6.25-6.06,10s-4.29,7.12-4.52,7.12-61.71-35.34-62.49-35.86c-.15-.3,2.37-4.89,5.63-10.5,4-6.66,6.8-9.76,8.12-9.17S495.28,42.59,511.54,52.05ZM485.07,92.7c22,12.72,30.9,18.63,30.32,20.11-.45,1.25-6.25,11.24-12.72,22.62-9.61,16.42-12.71,20.7-16.25,21.88-7.25,2.5-21.44,13-28.24,20.84l-6.5,7.4-23.37-13.31-23.2-13.45,4.72-8.43c28.38-49.52,43.46-75.38,43.79-75.54S467.93,82.94,485.07,92.7Zm-78.35,94.75c29.27,17,33.85,20.1,33.11,22.62-.43,1.62-1.62,8.57-2.49,15.52q-3.12,23.74,8.42,46.57l5.17,10.35-24.39,49.23c-13.45,27.06-24.83,48.94-25.57,48.64-8.13-4.44-121.21-69.78-122.13-70.67-1.32-1.25,90.34-141.48,92.7-141.63C372.12,168,387.94,176.83,406.72,187.45ZM543,178.28c22.92,8.58,38.29,31.34,38.29,56.63a60.88,60.88,0,0,1-38.44,55.88c-11.09,4.29-30.15,4.73-41.24.89-10.5-3.75-23.94-13.9-29.72-22.49-8.27-12.56-10.93-21.88-10.34-37,.45-11.24,1.19-14.78,5.17-23.36,5.17-10.94,16.25-22.91,25.73-27.65A63.41,63.41,0,0,1,543,178.3Zm95.36,77.47c91.81,87.9,115.14,225.49,57.51,339.48-10.79,21.24-25,43.16-37,56.62l-6.25,7.1-65.74-.39-65.84-.5,9-6.25c11.82-8.13,33.42-29.86,42.73-42.87,7.24-10.35,7.38-10.5,15.22-11.25,22.63-2.37,40.21-21.44,41.4-45,.73-13-2.07-22-9.91-32.37l-5.76-7.69,2.07-15.23c8.57-65.5-10.06-135.58-49.09-184.06L563,308.61l7.24-5.32c7.5-5.46,17.89-16,20.55-20.84,1.48-2.5,2.5-1.93,12,6.79,34,30.91,61.06,78.66,70.37,124.34,11.08,54.41,4.14,112.07-19.07,157.91a47.31,47.31,0,0,0-3.75,8.42c0,.59,4.74,3.75,10.35,6.8l10.49,5.77,6.37-13.9a268.86,268.86,0,0,0,11.82-197.81c-5.76-17.5-19.36-46.14-28.68-60.62-10.35-16-27.64-36.24-43.16-50.71L602.9,255.69l1.49-6.51A71.42,71.42,0,0,0,606,235.43v-7.09l9,6.94c5.18,3.94,15.52,13.1,23.36,20.5ZM327.62,366.21c22.77,13.16,41.4,24,41.55,24.1a76.85,76.85,0,0,1-5.33,9.76c-3.4,5.76-6.51,9.61-7.83,9.46-1.93-.15-55.45-30.3-77.62-43.73L273.51,363l2.5-4.72c3.11-6.06,9.17-15.82,9.91-15.82C286.23,342.4,305,353.2,327.62,366.21ZM592.41,528.66c10.35,4.57,15.81,17,12.41,28.09-3.4,11.39-16,19.22-27.34,17.15C567.33,572,557.34,560,557.34,549.69c0-7.25,6.06-16.71,13.29-20.55,7.74-4.14,13.5-4.29,21.78-.44Zm-57.95,21.43v12.57L398,562.36l-136.61-.43-3.55-4.15c-1.93-2.21-3.55-5.61-3.55-7.39,0-4.28,3.85-9.76,8-11.38,1.63-.74,63.73-1.34,137.65-1.34l134.54-.14ZM678.55,687c8.14,4.57,12.27,12.86,11.54,22.91-.74,9.17-4.14,14.64-11.69,19.08-5,3-7.68,3-242.43,3H198.69l-6.06-4c-14.93-9.76-14.49-30.32.89-40.66l5-3.4H673Z"/><path class="cls-1" d="M181,68.46C176.82,87.2,167.5,96.7,149,100.54c-4.15.88-4.15,1-4.15,12.72,0,13.59-.15,13.59,15.39,9.61a61.12,61.12,0,0,0,43.16-43.48c3.85-14.92,3.85-14.92-9.75-14.92C182,64.47,181.85,64.47,181,68.46Z"/><path class="cls-1" d="M279,89c-.59.6-1,6.36-1,12.72v11.54h25.28L302.79,101l-.45-12.13-11.09-.45C285,88.26,279.57,88.41,279,89Z"/><path class="cls-1" d="M84.28,137.65v12.5h23.65V125.08H84.28Z"/><path class="cls-1" d="M124.49,165.59c-27.81,10.35-44.21,38.59-38.89,67.12a60.35,60.35,0,0,0,85.16,44.06c29.27-13.31,42.88-51.16,28.83-80C186,168.7,153.17,155.09,124.49,165.59ZM161,190.13c16.41,8.28,24.4,29.42,17.6,45.83-12.27,29.28-55.15,29.28-67.42,0-2.81-6.8-2.66-20.25.44-27.34,4.15-10.21,14.19-18.75,25.14-21.6C143,185.4,154.79,186.89,161,190.13Z"/><path class="cls-1" d="M133.06,222.66v11.82h23.66V210.83H133.06Z"/><path class="cls-1" d="M266.41,197.82l.45,12.27h23.66V186.44L278.24,186,266,185.55Z"/><path class="cls-1" d="M193.69,319.5v12.56h23.65V306.93H193.69Z"/><path class="cls-1" d="M121.21,324.37c0,11.1,7.25,26.77,16.86,37s26,18,38.29,18h5.47V355.71h-4c-5.48-.14-16.42-5.17-21.6-10a37.48,37.48,0,0,1-10.78-20.84l-1-6.06H121.21Z"/><path class="cls-1" d="M513,199.59c-9.89,2.5-17,7.5-22,15.09a35.45,35.45,0,0,0,9.65,49.2,36.19,36.19,0,0,0,3.95,2.29c33.27,17,67.12-21,46.42-51.89a30.56,30.56,0,0,0-12.85-11.09C528,198.12,521.45,197.23,513,199.59Zm15.09,25.13c3.4,2.5,5.77,9,4.58,12.28-1.77,5.32-6.8,9.32-11.53,9.32-6.06,0-11.54-5.78-11.54-11.84C509.61,225.32,521,219.25,528.1,224.72Z"/></g></g></g></g></svg>