<svg id="레이어_1" data-name="레이어 1" xmlns="http://www.w3.org/2000/svg" width="511.6793" height="511.8673" viewBox="0 0 511.6793 511.8673"><defs><style>.cls-1{fill:#315e8b;}</style></defs><path class="cls-1" d="M240.5,2.5a8.2358,8.2358,0,0,0-2.5,5,8.2358,8.2358,0,0,0,2.5,5c2.4,2.4,2.8,2.5,18,2.5H274V69.9l-22.9.3c-20.9.3-23.1.5-25,2.2-1.4,1.3-2.1,3.1-2.1,5.7,0,4.9,2.7,6.9,9.2,6.9H238v25.4c0,24.1.1,25.5,2.1,28a6.9527,6.9527,0,0,0,10.7.3c2.1-2.3,2.2-3,2.2-28V85h58v22H295.6c-14.7,0-15.6.1-18,2.2-3.6,3.3-3.9,7.5-.6,10.8,1.8,1.8,3.3,2,18,2h16v21H295.6c-14.8,0-15.6.1-18.2,2.3-3.4,3-3.6,8.3-.3,10.9,1.8,1.6,4.3,1.8,18,1.8H311v20.8l-16,.4c-14.8.3-16.1.5-18.1,2.5-2.6,2.6-2.8,7.7-.3,10.4,1.5,1.6,3.5,1.9,17.8,2.1l16.1.3.3,9.7.3,9.7-14.2,17.8c-7.8,9.8-14.5,17.8-15,17.8-.4,0-7.1-8-14.8-17.7L253,214V189.7c0-26.3-.3-27.8-5.5-29.1-2.9-.7-7.9,1.5-8.9,3.9-.3.9-.6,13.5-.6,28v26.3l4.4,5.9c2.5,3.2,10.6,13.4,18,22.8l13.6,17v16.6c0,17.2.8,22.2,4,23.9a7.791,7.791,0,0,0,9-1c1.9-1.9,2-3.3,2-20.1V265.8l11.2-14.2c6.2-7.7,14.5-18.3,18.5-23.4l7.3-9.3V85h5c3.7,0,5.5-.5,7-2,2.7-2.7,2.6-8.1-.1-10.6-1.9-1.7-4.1-1.9-25.5-2.2L289,69.9V15h16c15.7,0,16.1-.1,18.5-2.5a8.2358,8.2358,0,0,0,2.5-5,8.2358,8.2358,0,0,0-2.5-5L321.1,0H242.9Z" transform="translate(-0.1291 0)"/><path class="cls-1" d="M15.5,132.5c-5.3,1.9-12.8,10-14.4,15.7C.2,151.2,0,160.3.2,179c.3,25.1.4,26.7,2.5,30.6a25.54,25.54,0,0,0,12,11l3.2,1.4.3,35.9c.3,33.7.4,36,2.2,38,2.2,2.5,7.3,2.8,10.2.7,1.7-1.3,2-3.1,2.4-17.3l.5-15.8h15c13.2,0,15.3.3,17.9,2,5.4,3.6,5.6,5.3,5.6,42.6,0,45.8,1,43.9-23.9,43.9H33V336.7c0-14.2-.2-15.5-2-17.2a7.7857,7.7857,0,0,0-10.3.4l-2.2,2.2v68.7c0,62.5.2,69.3,1.8,75.1,6.1,22.3,24.6,40,46.8,44.7a51.2025,51.2025,0,0,0,16.4.9c5-.4,10.6-.7,12.5-.6,1.9.2,81.8.5,177.5.7,195.7.5,179,1.2,186.4-7.2a21.5343,21.5343,0,0,0,5-9.2c1.1-5.2,0-21.9-2-32.3-.8-4-.9-6.4-.3-6.6,4-1.3,14.9-9,21.1-14.7,50.3-46.8,30-129.4-36.3-147.8-7.5-2.1-10.2-2.2-53.9-2.6-45.8-.3-46.1-.3-48.8,1.8a7.87,7.87,0,0,0-1.3,10.6c1.4,1.8,3.4,1.9,48.3,2.5,51.4.6,50.8.6,64.6,7.2a68.3465,68.3465,0,0,1,23.4,17.8,72.1482,72.1482,0,0,1-2.5,96.1c-4.3,4.6-17.5,14.8-19.2,14.8-.4,0-1.5-2.1-2.5-4.8-5.7-15.5-18-34.3-31.5-48.4-7.2-7.4-9-8.8-11.6-8.8-4.4,0-7.7,2.9-7.7,6.8,0,2.4,1.5,4.7,7.5,11.1,23.2,24.7,35.2,50.7,37.7,81.5.9,11.9.4,14.8-2.9,16.6-1.4.7-15,1-44.8.8l-42.7-.3-5.1-2.7c-14.1-7.4-19.8-24.2-13.1-38.1a29.123,29.123,0,0,1,23.2-16.3c7.3-.9,9.9-3,9.9-7.9,0-5.9-3.2-7.9-11.1-7.1-33.4,3.4-51,40.9-32.1,68.3l2.9,4.3H215.2l-3-2.5c-3.9-3.3-4.8-7.4-2.7-11.5,2.8-5.5,5.7-6,32-6,22.2,0,23.6-.1,25.5-2,2.5-2.5,2.6-7.1.1-10.1-1.9-2.4-2.1-2.4-26.1-2.7-29.2-.4-32.8.3-40.1,7.7-7,6.9-9.1,15.6-6.3,25.3.5,1.7-2.1,1.8-44.9,1.8-43.9,0-45.4-.1-47.2-2-2.6-2.8-2.1-9.3,1.4-18.9,5.1-13.9,13.1-25.2,25.8-36.2,5.4-4.7,19.2-13.9,20.8-13.9a28.71,28.71,0,0,1,3,5.2c5.7,11.5,13.9,16.5,30.4,18.8,14.4,2,40.6-3.3,48.3-9.8,3.9-3.3,3.7-8.5-.5-11.6-2.7-2-2.9-2-7.5-.3-22,8.5-39.6,9.6-50.7,3.4-15.8-8.9-12.4-49.2,5.8-68.4,15.6-16.5,42-16.3,57.8.4a39.6813,39.6813,0,0,1,9.3,38.3c-2.8,9.7-2.8,11.6-.4,14,3.3,3.3,8.8,2.5,11.6-1.8,4.8-7.1,6.7-24,4-35.7-.8-3.3-1.2-6.3-1-6.7.7-1.2,15.5-6.5,23.9-8.7a137.46,137.46,0,0,1,90.3,8.5c8.3,3.8,10.7,4.1,14,1.8,2.8-1.9,3.1-8.3.5-10.6-4.5-3.9-21.7-10.9-35.2-14.3a144.2266,144.2266,0,0,0-42.5-4.2c-19.2.8-34.3,4.3-55.3,12.8-3.1,1.3-3.2,1.2-10.2-5.4-14.4-13.6-32.4-18.6-51-14.2-26.5,6.3-43.4,30.1-46.6,65.6-.7,7.5-.8,7.7-4.1,9.3a27.9846,27.9846,0,0,1-3.9,1.6c-.3,0-.5-43.1-.5-95.8V222.5l5.8-3.1a25.4038,25.4038,0,0,0,12.6-17.1c.3-2.1.6-14,.6-26.4,0-25.4-.9-30.4-6.3-36.6a26.5486,26.5486,0,0,0-8.2-5.9l-5-2.4-60,.1C30.7,131.1,18.8,131.3,15.5,132.5Zm124.1,15c4.1,2.8,4.5,5.9,4.2,30.8l-.3,23.7-2.8,2.7-2.7,2.8-56.3.3c-38.5.2-57.4,0-59.9-.8-6.4-1.8-6.8-3.5-6.8-31V151.8l2.9-2.9,2.9-2.9H79.2C128.7,146,137.9,146.2,139.6,147.5ZM125,323.7V424.5l-6.4,5.3c-18.1,14.7-33,42.5-32.8,60.9l.1,6.3H80.1a46.42,46.42,0,0,1-46.2-41.2c-.5-4.6-.8-25.9-.7-48.3l.3-40L51,367c16.9-.5,17.7-.6,22.2-3.3,4.8-2.8,8.1-6.4,11.4-12.7,1.7-3.2,1.9-6.6,2.2-40.8.4-42.5.1-44.6-6.7-52.4-6.7-7.5-11.6-9.1-30.8-9.6L33,247.8V223h92Z" transform="translate(-0.1291 0)"/><path class="cls-1" d="M137.5,457.9c-4.2,1.9-9.5,7.2-9.5,9.6,0,7.3,9.3,10.7,13.9,5.1,1.9-2.3,4.9-2,8.3.9,3.7,3.1,5.9,3.2,9.4.2,5.4-4.7,2.6-11.8-6.1-15.8A18.6778,18.6778,0,0,0,137.5,457.9Z" transform="translate(-0.1291 0)"/></svg>